<svg width="880" height="210" viewBox="0 0 880 210" xmlns="http://www.w3.org/2000/svg" font-family="'Segoe UI', Ubuntu, Sans-Serif">
  <rect width="880" height="210" rx="10" fill="#0d1117"/>
  <text x="25" y="35" fill="#61DAFB" font-size="18" font-weight="600">Contribution Activity — last 6 months</text>
  <line x1="45" y1="180.0" x2="860" y2="180.0" stroke="#8b949e" stroke-opacity="0.2" stroke-dasharray="3,3"/><text x="37" y="184.0" fill="#8b949e" font-size="11" text-anchor="end">0</text><line x1="45" y1="55.0" x2="860" y2="55.0" stroke="#8b949e" stroke-opacity="0.2" stroke-dasharray="3,3"/><text x="37" y="59.0" fill="#8b949e" font-size="11" text-anchor="end">67</text>
  <polygon points="45,180 45.0,180.0 49.5,180.0 54.0,180.0 58.4,180.0 62.9,180.0 67.4,180.0 71.9,180.0 76.3,180.0 80.8,180.0 85.3,180.0 89.8,180.0 94.3,180.0 98.7,180.0 103.2,180.0 107.7,180.0 112.2,180.0 116.6,180.0 121.1,180.0 125.6,180.0 130.1,180.0 134.6,180.0 139.0,180.0 143.5,180.0 148.0,180.0 152.5,180.0 157.0,180.0 161.4,180.0 165.9,180.0 170.4,180.0 174.9,180.0 179.3,180.0 183.8,180.0 188.3,180.0 192.8,180.0 197.3,180.0 201.7,180.0 206.2,180.0 210.7,180.0 215.2,180.0 219.6,180.0 224.1,180.0 228.6,180.0 233.1,180.0 237.6,180.0 242.0,180.0 246.5,180.0 251.0,180.0 255.5,180.0 259.9,180.0 264.4,180.0 268.9,180.0 273.4,180.0 277.9,180.0 282.3,180.0 286.8,180.0 291.3,180.0 295.8,180.0 300.2,180.0 304.7,180.0 309.2,180.0 313.7,180.0 318.2,180.0 322.6,180.0 327.1,180.0 331.6,180.0 336.1,180.0 340.5,180.0 345.0,180.0 349.5,180.0 354.0,180.0 358.5,180.0 362.9,180.0 367.4,180.0 371.9,180.0 376.4,180.0 380.9,180.0 385.3,180.0 389.8,180.0 394.3,180.0 398.8,180.0 403.2,180.0 407.7,180.0 412.2,180.0 416.7,180.0 421.2,180.0 425.6,180.0 430.1,180.0 434.6,180.0 439.1,180.0 443.5,180.0 448.0,180.0 452.5,180.0 457.0,180.0 461.5,180.0 465.9,129.6 470.4,180.0 474.9,180.0 479.4,180.0 483.8,180.0 488.3,180.0 492.8,168.8 497.3,180.0 501.8,180.0 506.2,180.0 510.7,180.0 515.2,180.0 519.7,172.5 524.1,163.2 528.6,153.9 533.1,178.1 537.6,168.8 542.1,159.5 546.5,139.0 551.0,168.8 555.5,180.0 560.0,180.0 564.5,180.0 568.9,180.0 573.4,180.0 577.9,180.0 582.4,180.0 586.8,180.0 591.3,180.0 595.8,174.4 600.3,152.0 604.8,155.7 609.2,150.1 613.7,146.4 618.2,148.3 622.7,157.6 627.1,161.3 631.6,161.3 636.1,168.8 640.6,146.4 645.1,159.5 649.5,168.8 654.0,170.7 658.5,170.7 663.0,165.1 667.4,174.4 671.9,180.0 676.4,180.0 680.9,180.0 685.4,180.0 689.8,174.4 694.3,176.3 698.8,153.9 703.3,150.1 707.7,153.9 712.2,161.3 716.7,166.9 721.2,176.3 725.7,140.8 730.1,55.0 734.6,97.9 739.1,168.8 743.6,161.3 748.0,163.2 752.5,170.7 757.0,174.4 761.5,178.1 766.0,178.1 770.4,166.9 774.9,172.5 779.4,178.1 783.9,174.4 788.4,178.1 792.8,180.0 797.3,178.1 801.8,166.9 806.3,176.3 810.7,180.0 815.2,178.1 819.7,178.1 824.2,180.0 828.7,178.1 833.1,176.3 837.6,178.1 842.1,180.0 846.6,180.0 851.0,180.0 855.5,180.0 860.0,180.0 860.0,180" fill="#61DAFB" fill-opacity="0.12"/>
  <polyline points="45.0,180.0 49.5,180.0 54.0,180.0 58.4,180.0 62.9,180.0 67.4,180.0 71.9,180.0 76.3,180.0 80.8,180.0 85.3,180.0 89.8,180.0 94.3,180.0 98.7,180.0 103.2,180.0 107.7,180.0 112.2,180.0 116.6,180.0 121.1,180.0 125.6,180.0 130.1,180.0 134.6,180.0 139.0,180.0 143.5,180.0 148.0,180.0 152.5,180.0 157.0,180.0 161.4,180.0 165.9,180.0 170.4,180.0 174.9,180.0 179.3,180.0 183.8,180.0 188.3,180.0 192.8,180.0 197.3,180.0 201.7,180.0 206.2,180.0 210.7,180.0 215.2,180.0 219.6,180.0 224.1,180.0 228.6,180.0 233.1,180.0 237.6,180.0 242.0,180.0 246.5,180.0 251.0,180.0 255.5,180.0 259.9,180.0 264.4,180.0 268.9,180.0 273.4,180.0 277.9,180.0 282.3,180.0 286.8,180.0 291.3,180.0 295.8,180.0 300.2,180.0 304.7,180.0 309.2,180.0 313.7,180.0 318.2,180.0 322.6,180.0 327.1,180.0 331.6,180.0 336.1,180.0 340.5,180.0 345.0,180.0 349.5,180.0 354.0,180.0 358.5,180.0 362.9,180.0 367.4,180.0 371.9,180.0 376.4,180.0 380.9,180.0 385.3,180.0 389.8,180.0 394.3,180.0 398.8,180.0 403.2,180.0 407.7,180.0 412.2,180.0 416.7,180.0 421.2,180.0 425.6,180.0 430.1,180.0 434.6,180.0 439.1,180.0 443.5,180.0 448.0,180.0 452.5,180.0 457.0,180.0 461.5,180.0 465.9,129.6 470.4,180.0 474.9,180.0 479.4,180.0 483.8,180.0 488.3,180.0 492.8,168.8 497.3,180.0 501.8,180.0 506.2,180.0 510.7,180.0 515.2,180.0 519.7,172.5 524.1,163.2 528.6,153.9 533.1,178.1 537.6,168.8 542.1,159.5 546.5,139.0 551.0,168.8 555.5,180.0 560.0,180.0 564.5,180.0 568.9,180.0 573.4,180.0 577.9,180.0 582.4,180.0 586.8,180.0 591.3,180.0 595.8,174.4 600.3,152.0 604.8,155.7 609.2,150.1 613.7,146.4 618.2,148.3 622.7,157.6 627.1,161.3 631.6,161.3 636.1,168.8 640.6,146.4 645.1,159.5 649.5,168.8 654.0,170.7 658.5,170.7 663.0,165.1 667.4,174.4 671.9,180.0 676.4,180.0 680.9,180.0 685.4,180.0 689.8,174.4 694.3,176.3 698.8,153.9 703.3,150.1 707.7,153.9 712.2,161.3 716.7,166.9 721.2,176.3 725.7,140.8 730.1,55.0 734.6,97.9 739.1,168.8 743.6,161.3 748.0,163.2 752.5,170.7 757.0,174.4 761.5,178.1 766.0,178.1 770.4,166.9 774.9,172.5 779.4,178.1 783.9,174.4 788.4,178.1 792.8,180.0 797.3,178.1 801.8,166.9 806.3,176.3 810.7,180.0 815.2,178.1 819.7,178.1 824.2,180.0 828.7,178.1 833.1,176.3 837.6,178.1 842.1,180.0 846.6,180.0 851.0,180.0 855.5,180.0 860.0,180.0" fill="none" stroke="#61DAFB" stroke-width="1.5" stroke-linejoin="round"/>
  <circle cx="860.0" cy="180.0" r="3" fill="#ffffff"/>
  <text x="58.4" y="200" fill="#8b949e" font-size="12" text-anchor="middle">Apr</text><text x="192.8" y="200" fill="#8b949e" font-size="12" text-anchor="middle">May</text><text x="331.6" y="200" fill="#8b949e" font-size="12" text-anchor="middle">Jun</text><text x="465.9" y="200" fill="#8b949e" font-size="12" text-anchor="middle">Jul</text><text x="604.8" y="200" fill="#8b949e" font-size="12" text-anchor="middle">Aug</text><text x="743.6" y="200" fill="#8b949e" font-size="12" text-anchor="middle">Sep</text>
</svg>
