<svg width="420" height="195" viewBox="0 0 420 195" xmlns="http://www.w3.org/2000/svg" font-family="'Segoe UI', Ubuntu, Sans-Serif">
  <rect width="420" height="195" rx="10" fill="#0d1117"/>
  <text x="25" y="35" fill="#61DAFB" font-size="18" font-weight="600">Languages — all repos</text>
  <mask id="bar"><rect x="25" y="55" width="370" height="10" rx="5" fill="white"/></mask><g mask="url(#bar)"><rect x="25.0" y="55" width="134.0" height="10" fill="#7355dd"/><rect x="158.0" y="55" width="133.9" height="10" fill="#3572A5"/><rect x="290.9" y="55" width="64.7" height="10" fill="#F05138"/><rect x="354.6" y="55" width="30.4" height="10" fill="#3178c6"/><rect x="384.0" y="55" width="7.4" height="10" fill="#f1e05a"/><rect x="390.3" y="55" width="2.1" height="10" fill="#c6538c"/><rect x="391.4" y="55" width="1.9" height="10" fill="#663399"/><rect x="392.3" y="55" width="1.8" height="10" fill="#a91e50"/></g>
  <circle cx="30.0" cy="91" r="5" fill="#7355dd"/><text x="43.0" y="95" fill="#c9d1d9" font-size="13">C#</text><text x="190.0" y="95" fill="#8b949e" font-size="13" text-anchor="end">35.9%</text><circle cx="215.0" cy="91" r="5" fill="#3572A5"/><text x="228.0" y="95" fill="#c9d1d9" font-size="13">Python</text><text x="375.0" y="95" fill="#8b949e" font-size="13" text-anchor="end">35.9%</text><circle cx="30.0" cy="115" r="5" fill="#F05138"/><text x="43.0" y="119" fill="#c9d1d9" font-size="13">Swift</text><text x="190.0" y="119" fill="#8b949e" font-size="13" text-anchor="end">17.2%</text><circle cx="215.0" cy="115" r="5" fill="#3178c6"/><text x="228.0" y="119" fill="#c9d1d9" font-size="13">TypeScript</text><text x="375.0" y="119" fill="#8b949e" font-size="13" text-anchor="end">7.9%</text><circle cx="30.0" cy="139" r="5" fill="#f1e05a"/><text x="43.0" y="143" fill="#c9d1d9" font-size="13">JavaScript</text><text x="190.0" y="143" fill="#8b949e" font-size="13" text-anchor="end">1.7%</text><circle cx="215.0" cy="139" r="5" fill="#c6538c"/><text x="228.0" y="143" fill="#c9d1d9" font-size="13">SCSS</text><text x="375.0" y="143" fill="#8b949e" font-size="13" text-anchor="end">0.3%</text><circle cx="30.0" cy="163" r="5" fill="#663399"/><text x="43.0" y="167" fill="#c9d1d9" font-size="13">CSS</text><text x="190.0" y="167" fill="#8b949e" font-size="13" text-anchor="end">0.2%</text><circle cx="215.0" cy="163" r="5" fill="#a91e50"/><text x="228.0" y="167" fill="#c9d1d9" font-size="13">EJS</text><text x="375.0" y="167" fill="#8b949e" font-size="13" text-anchor="end">0.2%</text>
</svg>
